<?xml version="1.0" encoding="UTF-8"?>
<svg width="590px" height="51px" viewBox="0 0 590 51" version="1.1" xmlns="http://www.w3.org/2000/svg" xmlns:xlink="http://www.w3.org/1999/xlink">
    <title>Group</title>
    <defs>
        <filter color-interpolation-filters="auto" id="filter-1">
            <feColorMatrix in="SourceGraphic" type="matrix" values="0 0 0 0 0.007843 0 0 0 0 0.631373 0 0 0 0 0.698039 0 0 0 1.000000 0"></feColorMatrix>
        </filter>
        <linearGradient x1="92.6603142%" y1="42.1983182%" x2="12.8086816%" y2="56.8144459%" id="linearGradient-2">
            <stop stop-color="#FFED00" offset="0%"></stop>
            <stop stop-color="#FFCE00" offset="100%"></stop>
        </linearGradient>
    </defs>
    <g id="Page-1" stroke="none" stroke-width="1" fill="none" fill-rule="evenodd">
        <g id="Artboard-Copy-3" transform="translate(-46.000000, -65.000000)">
            <g id="Group" transform="translate(46.000000, 65.000000)">
                <g filter="url(#filter-1)" id="Group-25-Copy">
                    <g>
                        <path d="M461.921645,46.1054107 C462.379614,48.2128385 460.772065,50.204103 458.612581,50.204103 L448.068276,50.204103 C446.475117,50.204103 445.097822,49.0956468 444.759212,47.5413902 L444.25553,45.2288587 C443.916921,43.6746021 442.539626,42.5660614 440.947314,42.5660614 L437.139648,42.5660614 C435.560033,42.5660614 434.190357,43.6567633 433.838203,45.1946184 L433.293888,47.5756305 C432.941734,49.1134856 431.572058,50.204103 429.992444,50.204103 L420.16853,50.204103 C418.009047,50.204103 416.401497,48.2128385 416.85862,46.1054107 L426.122981,3.4601833 C426.460744,1.90497138 427.838886,0.795441525 429.432045,0.795441525 L449.349067,0.795441525 C450.942225,0.795441525 452.320367,1.90497138 452.65813,3.4601833 L461.921645,46.1054107 Z M439.066337,32.302422 C440.811023,32.302422 442.123982,30.7163769 441.797224,29.004784 L439.296591,15.9169528 C439.278814,15.8220099 439.195855,15.7532757 439.098505,15.7532757 C439.002001,15.7532757 438.919888,15.8215027 438.901265,15.9160228 L436.337143,28.9915951 C436.001073,30.7069925 437.315725,32.302422 439.066337,32.302422 Z" id="Shape" fill="#F8695F" fill-rule="nonzero"></path>
                        <path d="M412.677637,46.6916387 C412.752131,48.6091807 411.21569,50.204103 409.29408,50.204103 L400.47499,50.204103 C398.604172,50.204103 397.088893,48.6900893 397.088893,46.8223437 L397.088893,26.8825609 C397.088893,26.7560831 396.985617,26.6534467 396.859485,26.6534467 C396.750283,26.6534467 396.656319,26.7296209 396.63431,26.8358927 L392.324655,47.5116308 C391.997896,49.0800062 390.613829,50.204103 389.009666,50.204103 L379.966248,50.204103 C378.357851,50.204103 376.971245,49.0741726 376.648719,47.5003864 L372.414405,26.8363999 C372.392395,26.7298745 372.299278,26.6534467 372.190076,26.6534467 C372.063944,26.6534467 371.960668,26.755914 371.960668,26.8822228 L371.960668,46.8224282 C371.960668,48.6900893 370.445389,50.204103 368.574571,50.204103 L359.927326,50.204103 C358.004023,50.204103 356.466735,48.6056299 356.543769,46.6859742 L358.267292,4.04080601 C358.340939,2.2276504 359.834208,0.795441525 361.650849,0.795441525 L377.684865,0.795441525 C379.330508,0.795441525 380.737431,1.97658859 381.021017,3.59525076 L384.377485,22.7849677 C384.414732,22.9975959 384.599275,23.1526495 384.815138,23.1526495 C385.031849,23.1526495 385.217237,22.9967504 385.253638,22.783446 L388.536459,3.60728137 C388.814119,1.98306466 390.224428,0.795441525 391.874304,0.795441525 L407.642511,0.795441525 C409.461691,0.795441525 410.955807,2.2310068 411.026068,4.04647891 L412.677637,46.6916387 Z" id="Path" fill="#F8695F" fill-rule="nonzero"></path>
                        <path d="M352.310301,46.1054107 C352.76827,48.2128385 351.160721,50.204103 349.001238,50.204103 L338.456085,50.204103 C336.863773,50.204103 335.486478,49.0956468 335.147869,47.5413902 L334.644187,45.2288587 C334.305577,43.6746021 332.928282,42.5660614 331.335123,42.5660614 L327.528304,42.5660614 C325.94869,42.5660614 324.579013,43.6567633 324.226859,45.1946184 L323.682544,47.5756305 C323.33039,49.1134856 321.960714,50.204103 320.3811,50.204103 L310.55634,50.204103 C308.396856,50.204103 306.789307,48.2128385 307.247276,46.1054107 L316.511638,3.4601833 C316.849401,1.90497138 318.226696,0.795441525 319.820701,0.795441525 L339.736876,0.795441525 C341.330882,0.795441525 342.708176,1.90497138 343.04594,3.4601833 L352.310301,46.1054107 Z M329.454147,32.302422 C331.198833,32.302422 332.512639,30.7163769 332.18588,29.004784 L329.685248,15.9169528 C329.667471,15.8220099 329.583665,15.7532757 329.487161,15.7532757 C329.390657,15.7532757 329.307698,15.8215027 329.289074,15.9160228 L326.725799,28.9915951 C326.388882,30.7069925 327.704381,32.302422 329.454147,32.302422 Z" id="Shape" fill="#F8695F" fill-rule="nonzero"></path>
                        <path d="M303.06714,46.6916387 C303.141634,48.6091807 301.605192,50.204103 299.683582,50.204103 L290.863646,50.204103 C288.993674,50.204103 287.477549,48.6900893 287.477549,46.8223437 L287.477549,26.8825609 C287.477549,26.7560831 287.37512,26.6534467 287.248141,26.6534467 C287.139786,26.6534467 287.045822,26.7296209 287.023812,26.8358927 L282.714158,47.5116308 C282.387399,49.0800062 281.003332,50.204103 279.399169,50.204103 L270.35575,50.204103 C268.746508,50.204103 267.360748,49.0741726 267.038222,47.5003864 L262.803908,26.8363999 C262.781898,26.7298745 262.687934,26.6534467 262.579579,26.6534467 C262.4526,26.6534467 262.350171,26.755914 262.350171,26.8822228 L262.350171,46.8224282 C262.350171,48.6900893 260.834046,50.204103 258.964074,50.204103 L250.316829,50.204103 C248.392679,50.204103 246.855391,48.6056299 246.933271,46.6859742 L248.656795,4.04080601 C248.730442,2.2276504 250.222864,0.795441525 252.040352,0.795441525 L268.074367,0.795441525 C269.720011,0.795441525 271.126934,1.97658859 271.409673,3.59525076 L274.766142,22.7849677 C274.803389,22.9975959 274.988777,23.1526495 275.204641,23.1526495 C275.421351,23.1526495 275.605894,22.9967504 275.643141,22.783446 L278.925962,3.60728137 C279.203622,1.98306466 280.613084,0.795441525 282.26296,0.795441525 L298.032014,0.795441525 C299.851194,0.795441525 301.345309,2.2310068 301.415571,4.04647891 L303.06714,46.6916387 Z" id="Path" fill="#F8695F" fill-rule="nonzero"></path>
                        <path d="M238.598394,0.795441525 C240.999136,0.795441525 242.637161,3.22099146 241.738152,5.44388102 L230.219497,33.9207629 C230.056964,34.3232768 229.973158,34.753352 229.973158,35.1874854 L229.973158,46.8223437 C229.973158,48.6900893 228.457033,50.204103 226.587061,50.204103 L215.636424,50.204103 C213.766452,50.204103 212.250327,48.6900893 212.250327,46.8223437 L212.250327,35.0906825 C212.250327,34.667709 212.170754,34.2485399 212.016686,33.8549031 L200.836641,5.41299711 C199.963874,3.19460529 201.601899,0.795441525 203.98825,0.795441525 L214.970209,0.795441525 C216.582838,0.795441525 217.971138,1.93064739 218.289431,3.50902436 L221.353849,18.6925317 C221.38263,18.8340584 221.507069,18.9358493 221.651825,18.9358493 C221.796581,18.9358493 221.921866,18.8327057 221.949802,18.6899109 L224.868617,3.53828503 C225.175059,1.9461443 226.570131,0.795441525 228.193764,0.795441525 L238.598394,0.795441525 Z" id="Path" fill="#F8695F" fill-rule="nonzero"></path>
                        <path d="M197.240606,47.1462317 C197.072994,48.8804824 195.614433,50.204103 193.869746,50.204103 L167.38285,50.204103 C165.512877,50.204103 163.996753,48.6900893 163.996753,46.8223437 L163.996753,4.17720081 C163.996753,2.30950588 165.512877,0.795441525 167.38285,0.795441525 L194.411522,0.795441525 C196.399161,0.795441525 197.959305,2.49793751 197.784074,4.4757087 L197.219443,10.8400867 C197.064529,12.5852436 195.600888,13.9233212 193.846044,13.9233212 L184.789927,13.9233212 C183.140052,13.9233212 181.802543,15.2592006 181.802543,16.9069628 C181.802543,18.5548096 183.140052,19.8906045 184.789927,19.8906045 L191.645927,19.8906045 C193.515899,19.8906045 195.032024,21.4046181 195.032024,23.2723638 L195.032024,27.9659075 C195.032024,29.8336532 193.515899,31.3476668 191.645927,31.3476668 L185.18864,31.3476668 C183.318668,31.3476668 181.802543,32.8615959 181.802543,34.7290879 C181.802543,36.5966645 183.318668,38.1105936 185.18864,38.1105936 L194.38274,38.1105936 C196.381384,38.1105936 197.944914,39.8296264 197.753599,41.8161563 L197.240606,47.1462317 Z" id="Path" fill="#F8695F" fill-rule="nonzero"></path>
                        <path d="M157.305825,46.8223437 C157.305825,48.6900893 155.7897,50.204103 153.919728,50.204103 L142.357054,50.204103 C141.110123,50.204103 139.964776,49.5197194 139.374749,48.4225922 L129.952088,30.9029655 C129.888598,30.7848575 129.765006,30.7111352 129.631255,30.7111352 C129.429782,30.7111352 129.266403,30.874136 129.266403,31.0751815 L129.266403,46.8223437 C129.266403,48.6900893 127.750278,50.204103 125.880306,50.204103 L116.84366,50.204103 C114.973688,50.204103 113.457563,48.6900893 113.457563,46.8223437 L113.457563,4.17720081 C113.457563,2.30950588 114.973688,0.795441525 116.84366,0.795441525 L128.896472,0.795441525 C130.191654,0.795441525 131.373402,1.53332449 131.940573,2.69623542 L140.747811,20.7524459 C140.799449,20.8579568 140.906111,20.9249156 141.023778,20.9249156 C141.193083,20.9249156 141.331066,20.7875316 141.331066,20.6181055 L141.331066,4.17720081 C141.331066,2.30950588 142.847191,0.795441525 144.717163,0.795441525 L153.919728,0.795441525 C155.7897,0.795441525 157.305825,2.30950588 157.305825,4.17720081 L157.305825,46.8223437 Z" id="Path" fill="#F8695F" fill-rule="nonzero"></path>
                        <path d="M61.0906426,25.2215253 C61.0906426,16.3635141 62.921082,9.94535772 66.5820453,5.96723364 C70.298456,1.98907574 76.372352,0 84.8035641,0 C93.290816,0 99.3366921,1.96255429 102.942039,5.8876693 C106.603256,9.81279276 108.433442,16.2043178 108.433442,25.0624135 C108.433442,33.8674156 106.547386,40.3915902 102.775274,44.6349372 C99.0590322,48.8782842 93.0131561,51 84.6376453,51 C76.3169047,51 70.298456,48.904831 66.5820453,44.7144931 C62.921082,40.5241552 61.0906426,34.0265274 61.0906426,25.2215253 Z M89.4628334,15.7535293 C88.7415948,14.3744479 87.1890694,13.6848226 84.8035641,13.6848226 C82.418482,13.6848226 80.89313,14.347901 80.227508,15.6739734 C79.561886,16.9999612 79.2290327,19.8377645 79.2290327,24.1872142 L79.2290327,27.6880114 C79.2290327,32.1434793 79.5895674,35.0342917 80.3107214,36.360364 C81.0317907,37.6864364 82.6126747,38.3494303 85.0532887,38.3494303 C87.4938181,38.3494303 89.0192548,37.7128987 89.6295987,36.4399199 C90.2399427,35.1669412 90.5446914,32.3291379 90.5446914,27.9266791 L90.5446914,24.2667701 C90.5446914,19.9173204 90.1840721,17.0795171 89.4628334,15.7535293 Z" id="Shape" fill="#F8695F" fill-rule="nonzero"></path>
                        <path d="M56.1366981,46.6917232 C56.211023,48.6092653 54.6745815,50.2041875 52.7531408,50.2041875 L43.9333741,50.2041875 C42.0632328,50.2041875 40.5472772,48.6900893 40.5472772,46.8224282 L40.5472772,26.8826455 C40.5472772,26.7560831 40.4445091,26.6535313 40.3177845,26.6535313 C40.2091754,26.6535313 40.1153805,26.7297054 40.0932016,26.8359772 L35.7834621,47.5116308 C35.4565344,49.0800907 34.0725519,50.2041875 32.4684732,50.2041875 L23.4248855,50.2041875 C21.8164894,50.2041875 20.4299674,49.0741726 20.1075263,47.5004709 L15.8732121,26.8363999 C15.8513718,26.729959 15.7575769,26.6535313 15.6487985,26.6535313 C15.5223278,26.6535313 15.4197291,26.755914 15.4197291,26.8823073 L15.4197291,46.8224282 C15.4197291,48.6900893 13.9036888,50.2041875 12.0336321,50.2041875 L3.38615006,50.2041875 C1.46249147,50.2041875 -0.0747702997,48.6056299 0.00281279976,46.6860588 L1.72635307,4.04084828 C1.79962821,2.22768422 3.29272765,0.795475343 5.10969033,0.795475343 L21.1438413,0.795475343 C22.7891458,0.795475343 24.196323,1.97663086 24.4794007,3.59529304 L27.8359539,22.7850523 C27.873201,22.9975959 28.0579972,23.1527341 28.2740302,23.1527341 C28.4906558,23.1527341 28.6757906,22.9967504 28.7123605,22.783446 L31.9950968,3.60731519 C32.27318,1.98309848 33.6828968,0.795475343 35.3327725,0.795475343 L51.1014027,0.795475343 C52.9205833,0.795475343 54.4146985,2.23104061 54.4849601,4.04652118 L56.1366981,46.6917232 Z" id="Path" fill="#F8695F" fill-rule="nonzero"></path>
                    </g>
                </g>
                <rect id="Rectangle" fill="#FFFFFF" x="477" y="5" width="106" height="41"></rect>
                <path d="M580,0 C585.522847,-1.77635684e-15 590,4.4771525 590,10 L590,41 C590,46.5228475 585.522847,51 580,51 L479,51 C473.477153,51 469,46.5228475 469,41 L469,10 C469,4.4771525 473.477153,-1.77635684e-15 479,0 L580,0 Z M566.012695,7.97773437 C557.605176,7.97773437 552.408691,12.1692383 552.408691,18.9589844 C552.408691,24.4741211 555.52168,27.6851562 561.919238,28.8862305 L565.963672,29.6460937 C569.346289,30.2833984 570.64541,31.0432617 570.64541,32.3914062 C570.64541,34.0582031 569.272754,34.8670898 566.429395,34.8670898 C564.615527,34.8670898 562.237891,34.0091797 560.080859,32.5629883 C558.487598,31.4844727 557.286523,31.0677734 556.036426,31.0677734 C553.903906,31.0677734 552.139063,32.759082 552.139063,35.1367187 C552.139063,36.4603516 552.825391,37.7594727 554.050977,38.9605469 C556.453125,41.2891602 560.914258,42.7353516 565.914648,42.7353516 C574.861426,42.7353516 580.695215,38.2251953 580.695215,31.2883789 C580.695215,26.0428711 577.459668,22.8318359 571.135645,21.777832 L566.968652,21.0915039 C563.880176,20.5767578 562.605566,19.5717773 562.605566,18.1010742 C562.605566,16.7039062 563.929199,15.8214844 566.110742,15.8214844 C568.145215,15.8214844 569.689453,16.3852539 571.748438,17.8069336 C573.121094,18.7628906 574.420215,19.253125 575.523242,19.253125 C577.827344,19.253125 579.420605,17.7824219 579.420605,15.6499023 C579.420605,14.2282227 578.758789,12.9045898 577.435156,11.6299805 C575.082031,9.35039062 570.767969,7.97773437 566.012695,7.97773437 Z M542.505957,8.29638672 C539.196875,8.29638672 537.358496,10.2573242 537.358496,13.8115234 L537.358496,36.7299805 C537.358496,40.259668 539.245898,42.2451172 542.579492,42.2451172 C545.864063,42.2451172 547.653418,40.2841797 547.653418,36.7299805 L547.653418,13.8115234 C547.653418,10.2818359 545.815039,8.29638672 542.505957,8.29638672 Z M494.928711,8.54150391 L483.922949,8.54150391 C480.736426,8.54150391 478.775488,10.5269531 478.775488,13.7625 L478.775488,36.8035156 C478.775488,40.0390625 480.736426,42 483.922949,42 L495.590527,42 C502.404785,42 507.18457,38.078125 507.18457,32.4404297 C507.18457,27.9792969 503.875488,24.572168 499.438867,24.4496094 L499.438867,23.9838867 C503.238184,23.5181641 505.762891,20.6257812 505.762891,16.7529297 C505.762891,11.7035156 501.595898,8.54150391 494.928711,8.54150391 Z M516.155859,8.29638672 C512.846777,8.29638672 511.008398,10.2573242 511.008398,13.8115234 L511.008398,36.8035156 C511.008398,40.0390625 512.969336,42 516.155859,42 L530.00498,42 C532.407129,42 534.147461,40.2351562 534.147461,37.7839844 C534.147461,35.3328125 532.407129,33.5679687 530.00498,33.5679687 L521.30332,33.5679687 L521.30332,13.8115234 C521.30332,10.2818359 519.464941,8.29638672 516.155859,8.29638672 Z M492.404004,27.7586914 C495.394434,27.7586914 496.76709,29.278418 496.76709,31.3864258 C496.76709,33.4208984 495.49248,35.1367187 492.453027,35.1367187 L488.947852,35.1367187 L488.947852,27.7586914 L492.404004,27.7586914 Z M492.085352,15.4047852 C494.462988,15.4047852 495.811133,16.7039062 495.811133,18.5177734 C495.811133,20.1355469 494.732617,21.6797852 492.134375,21.6797852 L488.947852,21.6797852 L488.947852,15.4047852 L492.085352,15.4047852 Z" id="Combined-Shape" fill="url(#linearGradient-2)"></path>
            </g>
        </g>
    </g>
</svg>